<?xml version="1.0" standalone="no"?><!DOCTYPE svg PUBLIC "-//W3C//DTD SVG 1.1//EN" "http://www.w3.org/Graphics/SVG/1.1/DTD/svg11.dtd"><svg class="icon" height="512" viewBox="0 0 1024 1024" version="1.1" xmlns="http://www.w3.org/2000/svg"><path d="M787.82117 444.260158 668.423509 399.834403 593.24672 262.11365C588.823723 257.670163 584.404651 253.226676 584.404651 248.788396L575.558656 239.901422C544.602795 208.800921 500.381867 204.357434 460.583936 222.132682L252.744363 293.214151C235.052373 297.652432 221.788558 315.426379 217.365561 333.19642L199.678748 497.572887C195.254443 524.228602 217.365561 550.885615 243.898368 555.329104L248.321365 555.329104C274.855481 555.329104 296.965348 537.553852 296.965348 510.903347L310.230414 382.065662 389.830201 355.408647C376.561209 386.509149 363.296085 417.603143 354.450091 439.821878 336.763278 479.802845 336.763278 533.115574 358.873088 577.54133L221.788558 897.407289C208.524743 928.506487 221.788558 968.488761 252.744363 981.819221 266.009486 977.375733 274.855481 981.819221 283.696299 981.819221 310.230414 981.819221 332.340281 968.488761 341.186276 941.833045L442.897124 710.817297C504.804864 821.882334 575.558656 950.720017 575.558656 955.163506 588.823723 977.375733 610.938766 990.702285 633.048576 990.702285 641.890702 990.702285 655.159694 986.262704 664.000512 981.819221 694.956316 964.045272 708.22144 924.063004 690.533319 892.963806 686.110322 884.082034 579.981653 684.161582 509.227861 564.21087L571.135659 426.490117 593.24672 466.472385C597.669774 479.802845 610.938766 484.246332 619.779584 488.685914L756.865365 541.99734C761.288363 541.99734 770.134357 546.442132 774.557355 546.442132 796.667164 546.442132 814.355285 533.115574 823.20128 510.903347 827.6191 484.246332 814.355285 453.147131 787.82117 444.260158M575.558656 195.475667C628.625579 195.475667 672.846507 151.049912 672.846507 97.737183 672.846507 44.424454 628.625579 0 575.558656 0 522.491676 0 478.272057 44.424454 478.272057 97.737183 478.272057 151.049912 522.491676 195.475667 575.558656 195.475667" fill="#13227a" /></svg>